<svg xmlns="http://www.w3.org/2000/svg" viewBox="0 0 512 512" style="enable-background:new 0 0 512 512" xml:space="preserve"><path d="M50.509 456.507H81.92v15.706H50.509zM243.163 456.507h31.411v15.706h-31.411zM154.165 456.507h16.753v15.706h-16.753zM106.002 63.869h64.916v15.706h-64.916zM178.247 63.869H195v15.706h-16.753zM202.329 63.869h16.753v15.706h-16.753zM226.411 63.869h16.753v15.706h-16.753zM158.569 207.708v168.05h71.832v-168.05h-71.832zm56.126 152.344h-40.421V223.413h40.421v136.639zM246.768 151.58v224.177H318.6V151.58h-71.832zm56.127 208.471h-40.421V167.286h40.421v192.765zM334.967 87.436v288.322h71.832V87.436h-71.832zm56.127 272.616h-40.421V103.141h40.421v256.911zM423.167 15.272v360.486h71.832V15.272h-71.832zm56.127 344.78h-40.421V30.978h40.421v329.074z"/><path d="M305.982 143.444V0H17.001v512h288.981V383.215h-15.705v113.079H32.706V15.706h257.571v127.738z"/><path d="M273.524 143.444V31.411H50.506v401.014h223.018v-49.21h-15.705v33.505H66.211V47.117h191.608v96.327z"/></svg>