<svg xmlns="http://www.w3.org/2000/svg" viewBox="0 0 60 60" style="enable-background:new 0 0 60 60" xml:space="preserve"><path d="M0 .5v59h60V.5H0zm58 57H2v-55h56v55z"/><path d="M15 19.5c2.757 0 5-2.243 5-5s-2.243-5-5-5-5 2.243-5 5 2.243 5 5 5zm0-8c1.654 0 3 1.346 3 3s-1.346 3-3 3-3-1.346-3-3 1.346-3 3-3zM15 35.5c2.757 0 5-2.243 5-5s-2.243-5-5-5-5 2.243-5 5 2.243 5 5 5zm0-8c1.654 0 3 1.346 3 3s-1.346 3-3 3-3-1.346-3-3 1.346-3 3-3zM15 51.5c2.757 0 5-2.243 5-5s-2.243-5-5-5-5 2.243-5 5 2.243 5 5 5zm0-8c1.654 0 3 1.346 3 3s-1.346 3-3 3-3-1.346-3-3 1.346-3 3-3zM25 15.5h23a1 1 0 1 0 0-2H25a1 1 0 1 0 0 2zM25 31.5h23a1 1 0 1 0 0-2H25a1 1 0 1 0 0 2zM25 47.5h23a1 1 0 1 0 0-2H25a1 1 0 1 0 0 2z"/></svg>