<svg xmlns="http://www.w3.org/2000/svg" width="471.612" height="471.612" style="enable-background:new 0 0 471.612 471.612" xml:space="preserve"><path d="M68.987 402.624c91.98 91.983 241.652 91.983 333.636 0 91.983-91.977 91.983-241.658 0-333.639s-241.655-91.98-333.636 0-91.98 241.657 0 333.639zM87.29 87.276c81.899-81.896 215.152-81.896 297.052 0 81.882 81.894 81.882 215.154 0 297.055-81.899 81.887-215.164 81.887-297.052 0-81.896-81.9-81.896-215.161 0-297.055zm98.125 10.025c8.94-2.004 19.302-3.07 29.991-3.07 23.353 0 77.224 5.594 114.415 52.452l.124-.127 24.116-55.618a4.523 4.523 0 0 1 4.776-2.674 4.578 4.578 0 0 1 2.576 1.282 4.524 4.524 0 0 1 1.277 2.616l18.11 138.54c.172 1.383-.283 2.79-1.288 3.783a4.58 4.58 0 0 1-3.783 1.289l-138.543-18.116a4.507 4.507 0 0 1-3.889-3.848 4.534 4.534 0 0 1 2.675-4.782l55.623-24.116 4.965-4.962c-23.838-33.683-59.911-39.094-80.336-39.094-12.105 0-20.398 1.791-20.75 1.865a2.096 2.096 0 0 1-2.506-1.605l-9.177-41.283a2.142 2.142 0 0 1 1.624-2.532zm104.49 277.011c-8.938 2.004-19.299 3.068-29.991 3.068-23.354 0-77.221-5.592-114.409-52.452l-.127.13-24.113 55.614a4.526 4.526 0 0 1-4.776 2.678 4.63 4.63 0 0 1-2.58-1.282 4.55 4.55 0 0 1-1.277-2.619L94.525 240.912a4.51 4.51 0 0 1 1.289-3.783 4.568 4.568 0 0 1 3.783-1.292l138.531 18.125a4.505 4.505 0 0 1 3.89 3.848 4.528 4.528 0 0 1-2.672 4.782l-55.624 24.115-4.962 4.959c23.835 33.686 59.906 39.094 80.333 39.094 12.104 0 20.397-1.79 20.746-1.861a2.097 2.097 0 0 1 2.507 1.602l9.179 41.287a2.133 2.133 0 0 1-1.62 2.524z"/></svg>